<?xml version="1.0" encoding="iso-8859-1"?>
<!-- Uploaded to: SVG Repo, www.svgrepo.com, Generator: SVG Repo Mixer Tools -->
<svg fill="#000000" height="800px" width="800px" version="1.1" id="Layer_1" xmlns="http://www.w3.org/2000/svg" xmlns:xlink="http://www.w3.org/1999/xlink" 
	 viewBox="0 0 512 512" xml:space="preserve">
<g>
	<g>
		<g>
			<path d="M490.667,0H21.333C9.551,0,0,9.551,0,21.333v128v341.333C0,502.449,9.551,512,21.333,512h469.333
				c11.782,0,21.333-9.551,21.333-21.333V149.333v-128C512,9.551,502.449,0,490.667,0z M42.667,42.667h426.667V128H42.667V42.667z
				 M469.333,469.333H42.667V170.667h426.667V469.333z"/>
			<path d="M85.333,64C73.557,64,64,73.557,64,85.333s9.557,21.333,21.333,21.333s21.333-9.557,21.333-21.333S97.109,64,85.333,64z"
				/>
			<path d="M149.333,64C137.557,64,128,73.557,128,85.333s9.557,21.333,21.333,21.333s21.333-9.557,21.333-21.333
				S161.109,64,149.333,64z"/>
			<path d="M213.333,64C201.557,64,192,73.557,192,85.333s9.557,21.333,21.333,21.333s21.333-9.557,21.333-21.333
				S225.109,64,213.333,64z"/>
			<path d="M106.667,426.667h298.667c11.782,0,21.333-9.551,21.333-21.333V384c0-94.257-76.41-170.667-170.667-170.667
				S85.333,289.743,85.333,384v21.333C85.333,417.115,94.885,426.667,106.667,426.667z M256,256c70.693,0,128,57.307,128,128
				h-76.497l27.582-27.582c8.331-8.331,8.331-21.839,0-30.17c-8.331-8.331-21.839-8.331-30.17,0L247.163,384H128
				C128,313.307,185.307,256,256,256z"/>
		</g>
	</g>
</g>
</svg>